{
	"asset":{
		"generator":"Khronos glTF Blender I/O v3.6.27",
		"version":"2.0"
	},
	"extensionsUsed":[
		"KHR_materials_specular",
		"KHR_materials_ior"
	],
	"scene":0,
	"scenes":[
		{
			"name":"Scene",
			"nodes":[
				2
			]
		}
	],
	"nodes":[
		{
			"mesh":0,
			"name":"Untitled.001",
			"translation":[
				-0.35021692514419556,
				-0.07418697327375412,
				0.25477224588394165
			]
		},
		{
			"mesh":1,
			"name":"Untitled.002",
			"translation":[
				0.3497830927371979,
				-0.07418697327375412,
				0.25477224588394165
			]
		},
		{
			"children":[
				0,
				1
			],
			"mesh":2,
			"name":"Untitled",
			"rotation":[
				0.7071068286895752,
				0,
				0,
				0.7071068286895752
			],
			"translation":[
				0,
				0.5047721862792969,
				0
			]
		}
	],
	"animations":[
		{
			"channels":[
				{
					"sampler":0,
					"target":{
						"node":0,
						"path":"rotation"
					}
				}
			],
			"name":"rightFoward",
			"samplers":[
				{
					"input":11,
					"interpolation":"LINEAR",
					"output":12
				}
			]
		},
		{
			"channels":[
				{
					"sampler":0,
					"target":{
						"node":1,
						"path":"rotation"
					}
				}
			],
			"name":"leftFoward",
			"samplers":[
				{
					"input":11,
					"interpolation":"LINEAR",
					"output":13
				}
			]
		}
	],
	"materials":[
		{
			"doubleSided":true,
			"extensions":{
				"KHR_materials_specular":{
					"specularColorFactor":[
						0,
						0,
						0
					]
				},
				"KHR_materials_ior":{
					"ior":1.4500000476837158
				}
			},
			"name":"palette",
			"pbrMetallicRoughness":{
				"baseColorTexture":{
					"index":0
				},
				"metallicFactor":0
			}
		}
	],
	"meshes":[
		{
			"name":"Untitled.001",
			"primitives":[
				{
					"attributes":{
						"POSITION":0,
						"NORMAL":1,
						"TEXCOORD_0":2
					},
					"indices":3,
					"material":0
				}
			]
		},
		{
			"name":"Untitled.002",
			"primitives":[
				{
					"attributes":{
						"POSITION":4,
						"NORMAL":5,
						"TEXCOORD_0":6
					},
					"indices":3,
					"material":0
				}
			]
		},
		{
			"name":"Untitled",
			"primitives":[
				{
					"attributes":{
						"POSITION":7,
						"NORMAL":8,
						"TEXCOORD_0":9
					},
					"indices":10,
					"material":0
				}
			]
		}
	],
	"textures":[
		{
			"sampler":0,
			"source":0
		}
	],
	"images":[
		{
			"bufferView":4,
			"mimeType":"image/png",
			"name":"chr_old_WC"
		}
	],
	"accessors":[
		{
			"bufferView":0,
			"componentType":5126,
			"count":128,
			"max":[
				0.049999967217445374,
				0.2499999850988388,
				0.2499999850988388
			],
			"min":[
				-0.049999989569187164,
				-0.25,
				-0.25
			],
			"type":"VEC3"
		},
		{
			"bufferView":1,
			"componentType":5126,
			"count":128,
			"type":"VEC3"
		},
		{
			"bufferView":2,
			"componentType":5126,
			"count":128,
			"type":"VEC2"
		},
		{
			"bufferView":3,
			"componentType":5123,
			"count":276,
			"type":"SCALAR"
		},
		{
			"bufferView":5,
			"componentType":5126,
			"count":128,
			"max":[
				0.04999997466802597,
				0.2499999850988388,
				0.2499999850988388
			],
			"min":[
				-0.050000011920928955,
				-0.25,
				-0.25
			],
			"type":"VEC3"
		},
		{
			"bufferView":6,
			"componentType":5126,
			"count":128,
			"type":"VEC3"
		},
		{
			"bufferView":7,
			"componentType":5126,
			"count":128,
			"type":"VEC2"
		},
		{
			"bufferView":8,
			"componentType":5126,
			"count":902,
			"max":[
				0.39978307485580444,
				0.3758130371570587,
				0.5047722458839417
			],
			"min":[
				-0.4002169370651245,
				-0.42418694496154785,
				-0.6952278017997742
			],
			"type":"VEC3"
		},
		{
			"bufferView":9,
			"componentType":5126,
			"count":902,
			"type":"VEC3"
		},
		{
			"bufferView":10,
			"componentType":5126,
			"count":902,
			"type":"VEC2"
		},
		{
			"bufferView":11,
			"componentType":5123,
			"count":1596,
			"type":"SCALAR"
		},
		{
			"bufferView":12,
			"componentType":5126,
			"count":181,
			"max":[
				3
			],
			"min":[
				0
			],
			"type":"SCALAR"
		},
		{
			"bufferView":13,
			"componentType":5126,
			"count":181,
			"type":"VEC4"
		},
		{
			"bufferView":14,
			"componentType":5126,
			"count":181,
			"type":"VEC4"
		}
	],
	"bufferViews":[
		{
			"buffer":0,
			"byteLength":1536,
			"byteOffset":0,
			"target":34962
		},
		{
			"buffer":0,
			"byteLength":1536,
			"byteOffset":1536,
			"target":34962
		},
		{
			"buffer":0,
			"byteLength":1024,
			"byteOffset":3072,
			"target":34962
		},
		{
			"buffer":0,
			"byteLength":552,
			"byteOffset":4096,
			"target":34963
		},
		{
			"buffer":0,
			"byteLength":168,
			"byteOffset":4648
		},
		{
			"buffer":0,
			"byteLength":1536,
			"byteOffset":4816,
			"target":34962
		},
		{
			"buffer":0,
			"byteLength":1536,
			"byteOffset":6352,
			"target":34962
		},
		{
			"buffer":0,
			"byteLength":1024,
			"byteOffset":7888,
			"target":34962
		},
		{
			"buffer":0,
			"byteLength":10824,
			"byteOffset":8912,
			"target":34962
		},
		{
			"buffer":0,
			"byteLength":10824,
			"byteOffset":19736,
			"target":34962
		},
		{
			"buffer":0,
			"byteLength":7216,
			"byteOffset":30560,
			"target":34962
		},
		{
			"buffer":0,
			"byteLength":3192,
			"byteOffset":37776,
			"target":34963
		},
		{
			"buffer":0,
			"byteLength":724,
			"byteOffset":40968
		},
		{
			"buffer":0,
			"byteLength":2896,
			"byteOffset":41692
		},
		{
			"buffer":0,
			"byteLength":2896,
			"byteOffset":44588
		}
	],
	"samplers":[
		{
			"magFilter":9729,
			"minFilter":9987
		}
	],
	"buffers":[
		{
			"byteLength":47484,
			"uri":"data:application/octet-stream;base64,"
		}
	]
}
