{
	"asset":{
		"generator":"Khronos glTF Blender I/O v3.6.27",
		"version":"2.0"
	},
	"extensionsUsed":[
		"KHR_materials_specular",
		"KHR_materials_ior"
	],
	"scene":0,
	"scenes":[
		{
			"name":"Scene",
			"nodes":[
				2
			]
		}
	],
	"nodes":[
		{
			"mesh":0,
			"name":"Untitled.001",
			"rotation":[
				-0.7071068286895752,
				0,
				0,
				0.7071068286895752
			],
			"translation":[
				-0.3148047924041748,
				-0.229295015335083,
				0.066768117249012
			]
		},
		{
			"mesh":1,
			"name":"Untitled.002",
			"rotation":[
				-0.7071068286895752,
				0,
				0,
				0.7071068286895752
			],
			"translation":[
				0.3151952028274536,
				-0.229295015335083,
				0.06676838546991348
			]
		},
		{
			"children":[
				0,
				1
			],
			"mesh":2,
			"name":"Untitled",
			"translation":[
				0,
				0.5047721862792969,
				0
			]
		}
	],
	"animations":[
		{
			"channels":[
				{
					"sampler":0,
					"target":{
						"node":0,
						"path":"rotation"
					}
				}
			],
			"name":"rightFoward",
			"samplers":[
				{
					"input":11,
					"interpolation":"LINEAR",
					"output":12
				}
			]
		},
		{
			"channels":[
				{
					"sampler":0,
					"target":{
						"node":1,
						"path":"rotation"
					}
				}
			],
			"name":"leftFoward",
			"samplers":[
				{
					"input":11,
					"interpolation":"LINEAR",
					"output":13
				}
			]
		}
	],
	"materials":[
		{
			"doubleSided":true,
			"extensions":{
				"KHR_materials_specular":{
					"specularColorFactor":[
						0,
						0,
						0
					]
				},
				"KHR_materials_ior":{
					"ior":1.4500000476837158
				}
			},
			"name":"palette",
			"pbrMetallicRoughness":{
				"baseColorTexture":{
					"index":0
				},
				"metallicFactor":0
			}
		}
	],
	"meshes":[
		{
			"name":"Untitled.001",
			"primitives":[
				{
					"attributes":{
						"POSITION":0,
						"NORMAL":1,
						"TEXCOORD_0":2
					},
					"indices":3,
					"material":0
				}
			]
		},
		{
			"name":"Untitled.002",
			"primitives":[
				{
					"attributes":{
						"POSITION":4,
						"NORMAL":5,
						"TEXCOORD_0":6
					},
					"indices":3,
					"material":0
				}
			]
		},
		{
			"name":"Untitled",
			"primitives":[
				{
					"attributes":{
						"POSITION":7,
						"NORMAL":8,
						"TEXCOORD_0":9
					},
					"indices":10,
					"material":0
				}
			]
		}
	],
	"textures":[
		{
			"sampler":0,
			"source":0
		}
	],
	"images":[
		{
			"bufferView":4,
			"mimeType":"image/png",
			"name":"chr_old_WC"
		}
	],
	"accessors":[
		{
			"bufferView":0,
			"componentType":5126,
			"count":128,
			"max":[
				0.04499998316168785,
				0.22499999403953552,
				0.22499999403953552
			],
			"min":[
				-0.04500000551342964,
				-0.22499999403953552,
				-0.22499999403953552
			],
			"type":"VEC3"
		},
		{
			"bufferView":1,
			"componentType":5126,
			"count":128,
			"type":"VEC3"
		},
		{
			"bufferView":2,
			"componentType":5126,
			"count":128,
			"type":"VEC2"
		},
		{
			"bufferView":3,
			"componentType":5123,
			"count":276,
			"type":"SCALAR"
		},
		{
			"bufferView":5,
			"componentType":5126,
			"count":128,
			"max":[
				0.04499999061226845,
				0.22499999403953552,
				0.22499999403953552
			],
			"min":[
				-0.045000024139881134,
				-0.22499999403953552,
				-0.22499999403953552
			],
			"type":"VEC3"
		},
		{
			"bufferView":6,
			"componentType":5126,
			"count":128,
			"type":"VEC3"
		},
		{
			"bufferView":7,
			"componentType":5126,
			"count":128,
			"type":"VEC2"
		},
		{
			"bufferView":8,
			"componentType":5126,
			"count":902,
			"max":[
				0.36019524931907654,
				0.6257050037384033,
				0.3817683160305023
			],
			"min":[
				-0.35980474948883057,
				-0.45429500937461853,
				-0.3382318317890167
			],
			"type":"VEC3"
		},
		{
			"bufferView":9,
			"componentType":5126,
			"count":902,
			"type":"VEC3"
		},
		{
			"bufferView":10,
			"componentType":5126,
			"count":902,
			"type":"VEC2"
		},
		{
			"bufferView":11,
			"componentType":5123,
			"count":1596,
			"type":"SCALAR"
		},
		{
			"bufferView":12,
			"componentType":5126,
			"count":181,
			"max":[
				3
			],
			"min":[
				0
			],
			"type":"SCALAR"
		},
		{
			"bufferView":13,
			"componentType":5126,
			"count":181,
			"type":"VEC4"
		},
		{
			"bufferView":14,
			"componentType":5126,
			"count":181,
			"type":"VEC4"
		}
	],
	"bufferViews":[
		{
			"buffer":0,
			"byteLength":1536,
			"byteOffset":0,
			"target":34962
		},
		{
			"buffer":0,
			"byteLength":1536,
			"byteOffset":1536,
			"target":34962
		},
		{
			"buffer":0,
			"byteLength":1024,
			"byteOffset":3072,
			"target":34962
		},
		{
			"buffer":0,
			"byteLength":552,
			"byteOffset":4096,
			"target":34963
		},
		{
			"buffer":0,
			"byteLength":168,
			"byteOffset":4648
		},
		{
			"buffer":0,
			"byteLength":1536,
			"byteOffset":4816,
			"target":34962
		},
		{
			"buffer":0,
			"byteLength":1536,
			"byteOffset":6352,
			"target":34962
		},
		{
			"buffer":0,
			"byteLength":1024,
			"byteOffset":7888,
			"target":34962
		},
		{
			"buffer":0,
			"byteLength":10824,
			"byteOffset":8912,
			"target":34962
		},
		{
			"buffer":0,
			"byteLength":10824,
			"byteOffset":19736,
			"target":34962
		},
		{
			"buffer":0,
			"byteLength":7216,
			"byteOffset":30560,
			"target":34962
		},
		{
			"buffer":0,
			"byteLength":3192,
			"byteOffset":37776,
			"target":34963
		},
		{
			"buffer":0,
			"byteLength":724,
			"byteOffset":40968
		},
		{
			"buffer":0,
			"byteLength":2896,
			"byteOffset":41692
		},
		{
			"buffer":0,
			"byteLength":2896,
			"byteOffset":44588
		}
	],
	"samplers":[
		{
			"magFilter":9729,
			"minFilter":9987
		}
	],
	"buffers":[
		{
			"byteLength":47484,
			"uri":"data:application/octet-stream;base64,"
		}
	]
}
